<mxfile host="65bd71144e">
    <diagram id="DDbgb1lJPw_GepHiDn29" name="ページ1">
        <mxGraphModel dx="664" dy="449" grid="1" gridSize="10" guides="1" tooltips="1" connect="1" arrows="1" fold="1" page="1" pageScale="1" pageWidth="827" pageHeight="1169" background="#ffffff" math="0" shadow="0">
            <root>
                <mxCell id="0"/>
                <mxCell id="1" parent="0"/>
                <mxCell id="196" value="opt" style="shape=umlFrame;whiteSpace=wrap;html=1;" parent="1" vertex="1">
                    <mxGeometry x="1065" y="1754" width="285" height="136" as="geometry"/>
                </mxCell>
                <mxCell id="252" value="opt" style="shape=umlFrame;whiteSpace=wrap;html=1;" parent="1" vertex="1">
                    <mxGeometry x="1060" y="250" width="230" height="130" as="geometry"/>
                </mxCell>
                <mxCell id="97" value="alt" style="shape=umlFrame;whiteSpace=wrap;html=1;" parent="1" vertex="1">
                    <mxGeometry x="340" y="1080" width="240" height="160" as="geometry"/>
                </mxCell>
                <mxCell id="153" value="loop(1,手札の点数が18点以上)" style="shape=umlFrame;whiteSpace=wrap;html=1;" parent="1" vertex="1">
                    <mxGeometry x="1180" y="630" width="230" height="110" as="geometry"/>
                </mxCell>
                <mxCell id="253" value="sdヒットする" style="shape=umlFrame;whiteSpace=wrap;html=1;" parent="1" vertex="1">
                    <mxGeometry x="841" y="10" width="719" height="410" as="geometry"/>
                </mxCell>
                <mxCell id="208" value="sdゲームを終了する" style="shape=umlFrame;whiteSpace=wrap;html=1;" parent="1" vertex="1">
                    <mxGeometry x="841" y="1999" width="479" height="321" as="geometry"/>
                </mxCell>
                <mxCell id="199" value="sdゲームを継続する" style="shape=umlFrame;whiteSpace=wrap;html=1;" parent="1" vertex="1">
                    <mxGeometry x="841" y="1600" width="559" height="360" as="geometry"/>
                </mxCell>
                <mxCell id="186" value="sdサレンダーする" style="shape=umlFrame;whiteSpace=wrap;html=1;" parent="1" vertex="1">
                    <mxGeometry x="840" y="1200" width="640" height="360" as="geometry"/>
                </mxCell>
                <mxCell id="167" value="sdスタンドする" style="shape=umlFrame;whiteSpace=wrap;html=1;" parent="1" vertex="1">
                    <mxGeometry x="841" y="440" width="759" height="720" as="geometry"/>
                </mxCell>
                <mxCell id="102" value="sd掛け金を入力する" style="shape=umlFrame;whiteSpace=wrap;html=1;labelBackgroundColor=none;" parent="1" vertex="1">
                    <mxGeometry x="40" y="880" width="720" height="440" as="geometry"/>
                </mxCell>
                <mxCell id="57" value="sdログインする" style="shape=umlFrame;whiteSpace=wrap;html=1;" parent="1" vertex="1">
                    <mxGeometry x="40" y="440" width="720" height="390" as="geometry"/>
                </mxCell>
                <mxCell id="68" value="sdユーザ情報を登録する" style="shape=umlFrame;whiteSpace=wrap;html=1;" parent="1" vertex="1">
                    <mxGeometry x="40" y="10" width="720" height="390" as="geometry"/>
                </mxCell>
                <mxCell id="116" value="sdゲームを開始する" style="shape=umlFrame;whiteSpace=wrap;html=1;" parent="1" vertex="1">
                    <mxGeometry x="40" y="1360" width="440" height="300" as="geometry"/>
                </mxCell>
                <mxCell id="11" value=":main page1" style="shape=umlLifeline;perimeter=lifelinePerimeter;whiteSpace=wrap;html=1;container=1;collapsible=0;recursiveResize=0;outlineConnect=0;" parent="1" vertex="1">
                    <mxGeometry x="120" y="40" width="100" height="330" as="geometry"/>
                </mxCell>
                <mxCell id="15" value="" style="html=1;points=[];perimeter=orthogonalPerimeter;" parent="11" vertex="1">
                    <mxGeometry x="45" y="80" width="10" height="190" as="geometry"/>
                </mxCell>
                <mxCell id="12" value=":user RegislatinPage" style="shape=umlLifeline;perimeter=lifelinePerimeter;whiteSpace=wrap;html=1;container=1;collapsible=0;recursiveResize=0;outlineConnect=0;" parent="1" vertex="1">
                    <mxGeometry x="240" y="40" width="100" height="330" as="geometry"/>
                </mxCell>
                <mxCell id="16" value="" style="html=1;points=[];perimeter=orthogonalPerimeter;" parent="12" vertex="1">
                    <mxGeometry x="45" y="90" width="10" height="120" as="geometry"/>
                </mxCell>
                <mxCell id="20" value="confirm(User_name,Pass)" style="html=1;verticalAlign=bottom;endArrow=block;" parent="12" target="14" edge="1">
                    <mxGeometry width="80" relative="1" as="geometry">
                        <mxPoint x="60" y="100" as="sourcePoint"/>
                        <mxPoint x="140" y="100" as="targetPoint"/>
                    </mxGeometry>
                </mxCell>
                <mxCell id="27" value="" style="html=1;points=[];perimeter=orthogonalPerimeter;" parent="12" vertex="1">
                    <mxGeometry x="50" y="150" width="10" height="40" as="geometry"/>
                </mxCell>
                <mxCell id="28" value="show_script(&quot;文字数オーバーです&quot;)" style="edgeStyle=orthogonalEdgeStyle;html=1;align=left;spacingLeft=2;endArrow=block;rounded=0;entryX=1;entryY=0;" parent="12" target="27" edge="1">
                    <mxGeometry x="0.0133" relative="1" as="geometry">
                        <mxPoint x="55" y="130" as="sourcePoint"/>
                        <Array as="points">
                            <mxPoint x="85" y="130"/>
                        </Array>
                        <mxPoint as="offset"/>
                    </mxGeometry>
                </mxCell>
                <mxCell id="13" value=":UserInformation&lt;br&gt;ConfirmationPage" style="shape=umlLifeline;perimeter=lifelinePerimeter;whiteSpace=wrap;html=1;container=1;collapsible=0;recursiveResize=0;outlineConnect=0;" parent="1" vertex="1">
                    <mxGeometry x="360" y="40" width="100" height="330" as="geometry"/>
                </mxCell>
                <mxCell id="32" value="" style="html=1;points=[];perimeter=orthogonalPerimeter;" parent="13" vertex="1">
                    <mxGeometry x="45" y="230" width="10" height="80" as="geometry"/>
                </mxCell>
                <mxCell id="31" value="[文字数が上限以上]" style="text;html=1;align=center;verticalAlign=middle;resizable=0;points=[];autosize=1;strokeColor=none;fillColor=none;" parent="13" vertex="1">
                    <mxGeometry x="-60" y="100" width="130" height="30" as="geometry"/>
                </mxCell>
                <mxCell id="14" value=":CreatUserControl" style="shape=umlLifeline;perimeter=lifelinePerimeter;whiteSpace=wrap;html=1;container=1;collapsible=0;recursiveResize=0;outlineConnect=0;" parent="1" vertex="1">
                    <mxGeometry x="480" y="40" width="100" height="330" as="geometry"/>
                </mxCell>
                <mxCell id="18" value="" style="html=1;points=[];perimeter=orthogonalPerimeter;" parent="14" vertex="1">
                    <mxGeometry x="45" y="100" width="10" height="80" as="geometry"/>
                </mxCell>
                <mxCell id="37" value="User(User_name,Pass)" style="html=1;verticalAlign=bottom;endArrow=block;" parent="14" target="35" edge="1">
                    <mxGeometry width="80" relative="1" as="geometry">
                        <mxPoint x="50" y="110" as="sourcePoint"/>
                        <mxPoint x="130" y="110" as="targetPoint"/>
                    </mxGeometry>
                </mxCell>
                <mxCell id="17" value="entry()" style="html=1;verticalAlign=bottom;endArrow=block;" parent="1" target="12" edge="1">
                    <mxGeometry width="80" relative="1" as="geometry">
                        <mxPoint x="180" y="130" as="sourcePoint"/>
                        <mxPoint x="310" y="130" as="targetPoint"/>
                    </mxGeometry>
                </mxCell>
                <mxCell id="33" value="MessageBox(Name,Money,Password)" style="html=1;verticalAlign=bottom;endArrow=block;" parent="1" target="13" edge="1">
                    <mxGeometry width="80" relative="1" as="geometry">
                        <mxPoint x="175" y="270" as="sourcePoint"/>
                        <mxPoint x="255" y="270" as="targetPoint"/>
                    </mxGeometry>
                </mxCell>
                <mxCell id="35" value=":User" style="shape=umlLifeline;perimeter=lifelinePerimeter;whiteSpace=wrap;html=1;container=1;collapsible=0;recursiveResize=0;outlineConnect=0;" parent="1" vertex="1">
                    <mxGeometry x="640" y="40" width="100" height="330" as="geometry"/>
                </mxCell>
                <mxCell id="36" value="" style="html=1;points=[];perimeter=orthogonalPerimeter;" parent="35" vertex="1">
                    <mxGeometry x="45" y="110" width="10" height="80" as="geometry"/>
                </mxCell>
                <mxCell id="39" value=":MainPage1" style="shape=umlLifeline;perimeter=lifelinePerimeter;whiteSpace=wrap;html=1;container=1;collapsible=0;recursiveResize=0;outlineConnect=0;" parent="1" vertex="1">
                    <mxGeometry x="120" y="480" width="100" height="300" as="geometry"/>
                </mxCell>
                <mxCell id="40" value="" style="html=1;points=[];perimeter=orthogonalPerimeter;" parent="39" vertex="1">
                    <mxGeometry x="45" y="80" width="10" height="180" as="geometry"/>
                </mxCell>
                <mxCell id="44" value="entry()" style="html=1;verticalAlign=bottom;endArrow=block;" parent="39" target="41" edge="1">
                    <mxGeometry width="80" relative="1" as="geometry">
                        <mxPoint x="60" y="90" as="sourcePoint"/>
                        <mxPoint x="140" y="90" as="targetPoint"/>
                    </mxGeometry>
                </mxCell>
                <mxCell id="56" value="MessageBox()" style="html=1;verticalAlign=bottom;endArrow=block;" parent="39" target="54" edge="1">
                    <mxGeometry x="0.0022" width="80" relative="1" as="geometry">
                        <mxPoint x="60" y="190" as="sourcePoint"/>
                        <mxPoint x="140" y="190" as="targetPoint"/>
                        <mxPoint as="offset"/>
                    </mxGeometry>
                </mxCell>
                <mxCell id="41" value=":LoginPage" style="shape=umlLifeline;perimeter=lifelinePerimeter;whiteSpace=wrap;html=1;container=1;collapsible=0;recursiveResize=0;outlineConnect=0;" parent="1" vertex="1">
                    <mxGeometry x="240" y="480" width="100" height="300" as="geometry"/>
                </mxCell>
                <mxCell id="42" value="" style="html=1;points=[];perimeter=orthogonalPerimeter;" parent="41" vertex="1">
                    <mxGeometry x="45" y="90" width="10" height="80" as="geometry"/>
                </mxCell>
                <mxCell id="47" value="CheckUser(User_name,Pass)" style="html=1;verticalAlign=bottom;endArrow=block;" parent="41" target="45" edge="1">
                    <mxGeometry width="80" relative="1" as="geometry">
                        <mxPoint x="60" y="100" as="sourcePoint"/>
                        <mxPoint x="140" y="100" as="targetPoint"/>
                    </mxGeometry>
                </mxCell>
                <mxCell id="45" value=":CheckUser&lt;br&gt;Control" style="shape=umlLifeline;perimeter=lifelinePerimeter;whiteSpace=wrap;html=1;container=1;collapsible=0;recursiveResize=0;outlineConnect=0;" parent="1" vertex="1">
                    <mxGeometry x="480" y="480" width="100" height="300" as="geometry"/>
                </mxCell>
                <mxCell id="46" value="" style="html=1;points=[];perimeter=orthogonalPerimeter;" parent="45" vertex="1">
                    <mxGeometry x="45" y="100" width="10" height="80" as="geometry"/>
                </mxCell>
                <mxCell id="48" value="DB:Pickle" style="shape=umlLifeline;perimeter=lifelinePerimeter;whiteSpace=wrap;html=1;container=1;collapsible=0;recursiveResize=0;outlineConnect=0;" parent="1" vertex="1">
                    <mxGeometry x="640" y="480" width="100" height="300" as="geometry"/>
                </mxCell>
                <mxCell id="49" value="" style="html=1;points=[];perimeter=orthogonalPerimeter;" parent="48" vertex="1">
                    <mxGeometry x="45" y="120" width="10" height="40" as="geometry"/>
                </mxCell>
                <mxCell id="50" value="confirm(User_name,Pass)" style="html=1;verticalAlign=bottom;endArrow=block;entryX=0;entryY=0;" parent="1" source="45" target="49" edge="1">
                    <mxGeometry relative="1" as="geometry">
                        <mxPoint x="535" y="600" as="sourcePoint"/>
                    </mxGeometry>
                </mxCell>
                <mxCell id="54" value=":UserInformation&lt;br&gt;ConfirmationPage" style="shape=umlLifeline;perimeter=lifelinePerimeter;whiteSpace=wrap;html=1;container=1;collapsible=0;recursiveResize=0;outlineConnect=0;" parent="1" vertex="1">
                    <mxGeometry x="360" y="480" width="100" height="300" as="geometry"/>
                </mxCell>
                <mxCell id="55" value="" style="html=1;points=[];perimeter=orthogonalPerimeter;" parent="54" vertex="1">
                    <mxGeometry x="44" y="190" width="10" height="70" as="geometry"/>
                </mxCell>
                <mxCell id="58" value=":MainPage2" style="shape=umlLifeline;perimeter=lifelinePerimeter;whiteSpace=wrap;html=1;container=1;collapsible=0;recursiveResize=0;outlineConnect=0;" parent="1" vertex="1">
                    <mxGeometry x="120" y="920" width="100" height="380" as="geometry"/>
                </mxCell>
                <mxCell id="59" value="" style="html=1;points=[];perimeter=orthogonalPerimeter;" parent="58" vertex="1">
                    <mxGeometry x="45" y="80" width="10" height="270" as="geometry"/>
                </mxCell>
                <mxCell id="62" value="entry(bet)" style="html=1;verticalAlign=bottom;endArrow=block;" parent="58" target="60" edge="1">
                    <mxGeometry width="80" relative="1" as="geometry">
                        <mxPoint x="60" y="90" as="sourcePoint"/>
                        <mxPoint x="140" y="90" as="targetPoint"/>
                    </mxGeometry>
                </mxCell>
                <mxCell id="60" value=":BetInputPage" style="shape=umlLifeline;perimeter=lifelinePerimeter;whiteSpace=wrap;html=1;container=1;collapsible=0;recursiveResize=0;outlineConnect=0;" parent="1" vertex="1">
                    <mxGeometry x="240" y="920" width="100" height="380" as="geometry"/>
                </mxCell>
                <mxCell id="61" value="" style="html=1;points=[];perimeter=orthogonalPerimeter;" parent="60" vertex="1">
                    <mxGeometry x="45" y="90" width="10" height="80" as="geometry"/>
                </mxCell>
                <mxCell id="76" value="createBetControl(form,bet)" style="html=1;verticalAlign=bottom;endArrow=block;" parent="60" target="74" edge="1">
                    <mxGeometry width="80" relative="1" as="geometry">
                        <mxPoint x="50" y="140" as="sourcePoint"/>
                        <mxPoint x="130" y="140" as="targetPoint"/>
                    </mxGeometry>
                </mxCell>
                <mxCell id="63" value="" style="shape=umlLifeline;participant=umlActor;perimeter=lifelinePerimeter;whiteSpace=wrap;html=1;container=1;collapsible=0;recursiveResize=0;verticalAlign=top;spacingTop=36;outlineConnect=0;" parent="1" vertex="1">
                    <mxGeometry x="70" y="80" width="20" height="300" as="geometry"/>
                </mxCell>
                <mxCell id="64" value="" style="html=1;points=[];perimeter=orthogonalPerimeter;" parent="63" vertex="1">
                    <mxGeometry x="5" y="80" width="10" height="80" as="geometry"/>
                </mxCell>
                <mxCell id="65" value="input(User_name,Pass)" style="html=1;verticalAlign=bottom;endArrow=block;entryX=0.3;entryY=0.292;entryDx=0;entryDy=0;entryPerimeter=0;" parent="1" source="63" target="16" edge="1">
                    <mxGeometry width="80" relative="1" as="geometry">
                        <mxPoint x="85" y="150" as="sourcePoint"/>
                        <mxPoint x="290" y="170" as="targetPoint"/>
                    </mxGeometry>
                </mxCell>
                <mxCell id="66" value="User" style="text;html=1;align=center;verticalAlign=middle;resizable=0;points=[];autosize=1;strokeColor=none;fillColor=none;" parent="1" vertex="1">
                    <mxGeometry x="55" y="45" width="50" height="30" as="geometry"/>
                </mxCell>
                <mxCell id="69" value="" style="shape=umlLifeline;participant=umlActor;perimeter=lifelinePerimeter;whiteSpace=wrap;html=1;container=1;collapsible=0;recursiveResize=0;verticalAlign=top;spacingTop=36;outlineConnect=0;" parent="1" vertex="1">
                    <mxGeometry x="70" y="960" width="20" height="340" as="geometry"/>
                </mxCell>
                <mxCell id="71" value="" style="html=1;points=[];perimeter=orthogonalPerimeter;" parent="69" vertex="1">
                    <mxGeometry x="5" y="70" width="10" height="80" as="geometry"/>
                </mxCell>
                <mxCell id="70" value="User" style="text;html=1;align=center;verticalAlign=middle;resizable=0;points=[];autosize=1;strokeColor=none;fillColor=none;" parent="1" vertex="1">
                    <mxGeometry x="55" y="925" width="50" height="30" as="geometry"/>
                </mxCell>
                <mxCell id="72" value="input(bet)" style="html=1;verticalAlign=bottom;endArrow=block;" parent="1" target="60" edge="1">
                    <mxGeometry width="80" relative="1" as="geometry">
                        <mxPoint x="90" y="1040" as="sourcePoint"/>
                        <mxPoint x="170" y="1040" as="targetPoint"/>
                    </mxGeometry>
                </mxCell>
                <mxCell id="74" value=":CreatBetControl" style="shape=umlLifeline;perimeter=lifelinePerimeter;whiteSpace=wrap;html=1;container=1;collapsible=0;recursiveResize=0;outlineConnect=0;" parent="1" vertex="1">
                    <mxGeometry x="360" y="920" width="100" height="380" as="geometry"/>
                </mxCell>
                <mxCell id="75" value="" style="html=1;points=[];perimeter=orthogonalPerimeter;" parent="74" vertex="1">
                    <mxGeometry x="45" y="140" width="10" height="220" as="geometry"/>
                </mxCell>
                <mxCell id="262" value="Message()" style="html=1;verticalAlign=bottom;endArrow=block;" parent="74" target="98" edge="1">
                    <mxGeometry x="0.0021" width="80" relative="1" as="geometry">
                        <mxPoint x="50" y="340" as="sourcePoint"/>
                        <mxPoint x="130" y="340" as="targetPoint"/>
                        <mxPoint as="offset"/>
                    </mxGeometry>
                </mxCell>
                <mxCell id="77" value=":Bet" style="shape=umlLifeline;perimeter=lifelinePerimeter;whiteSpace=wrap;html=1;container=1;collapsible=0;recursiveResize=0;outlineConnect=0;" parent="1" vertex="1">
                    <mxGeometry x="480" y="920" width="100" height="300" as="geometry"/>
                </mxCell>
                <mxCell id="78" value="" style="html=1;points=[];perimeter=orthogonalPerimeter;" parent="77" vertex="1">
                    <mxGeometry x="45" y="200" width="10" height="90" as="geometry"/>
                </mxCell>
                <mxCell id="86" value="setup(bet)" style="html=1;verticalAlign=bottom;endArrow=block;" parent="77" target="77" edge="1">
                    <mxGeometry x="-0.0393" width="80" relative="1" as="geometry">
                        <mxPoint x="-65" y="200" as="sourcePoint"/>
                        <mxPoint x="35" y="200" as="targetPoint"/>
                        <mxPoint as="offset"/>
                    </mxGeometry>
                </mxCell>
                <mxCell id="88" value="setup(bet=1000)" style="html=1;verticalAlign=bottom;endArrow=block;entryX=0.5;entryY=0.917;entryDx=0;entryDy=0;entryPerimeter=0;" parent="77" target="78" edge="1">
                    <mxGeometry x="-0.0909" width="80" relative="1" as="geometry">
                        <mxPoint x="-60" y="280" as="sourcePoint"/>
                        <mxPoint x="40" y="280" as="targetPoint"/>
                        <mxPoint as="offset"/>
                    </mxGeometry>
                </mxCell>
                <mxCell id="92" value="" style="endArrow=none;dashed=1;html=1;exitX=0.006;exitY=0.377;exitDx=0;exitDy=0;exitPerimeter=0;entryX=0.998;entryY=0.377;entryDx=0;entryDy=0;entryPerimeter=0;" parent="1" edge="1">
                    <mxGeometry width="50" height="50" relative="1" as="geometry">
                        <mxPoint x="341.44000000000005" y="1136.55" as="sourcePoint"/>
                        <mxPoint x="579.52" y="1136.55" as="targetPoint"/>
                    </mxGeometry>
                </mxCell>
                <mxCell id="98" value="BetConfirmation&lt;br&gt;Page" style="shape=umlLifeline;perimeter=lifelinePerimeter;whiteSpace=wrap;html=1;container=1;collapsible=0;recursiveResize=0;outlineConnect=0;" parent="1" vertex="1">
                    <mxGeometry x="600" y="920" width="100" height="380" as="geometry"/>
                </mxCell>
                <mxCell id="99" value="" style="html=1;points=[];perimeter=orthogonalPerimeter;" parent="98" vertex="1">
                    <mxGeometry x="45" y="340" width="10" height="40" as="geometry"/>
                </mxCell>
                <mxCell id="103" value=":MainPage" style="shape=umlLifeline;perimeter=lifelinePerimeter;whiteSpace=wrap;html=1;container=1;collapsible=0;recursiveResize=0;outlineConnect=0;" parent="1" vertex="1">
                    <mxGeometry x="120" y="1400" width="100" height="240" as="geometry"/>
                </mxCell>
                <mxCell id="106" value="" style="html=1;points=[];perimeter=orthogonalPerimeter;" parent="103" vertex="1">
                    <mxGeometry x="45" y="80" width="10" height="120" as="geometry"/>
                </mxCell>
                <mxCell id="111" value="GameStartControl(bet)" style="html=1;verticalAlign=bottom;endArrow=block;" parent="103" target="105" edge="1">
                    <mxGeometry width="80" relative="1" as="geometry">
                        <mxPoint x="60" y="90" as="sourcePoint"/>
                        <mxPoint x="140" y="90" as="targetPoint"/>
                    </mxGeometry>
                </mxCell>
                <mxCell id="104" value=":PlayPage" style="shape=umlLifeline;perimeter=lifelinePerimeter;whiteSpace=wrap;html=1;container=1;collapsible=0;recursiveResize=0;outlineConnect=0;" parent="1" vertex="1">
                    <mxGeometry x="360" y="1400" width="100" height="240" as="geometry"/>
                </mxCell>
                <mxCell id="107" value="" style="html=1;points=[];perimeter=orthogonalPerimeter;" parent="104" vertex="1">
                    <mxGeometry x="45" y="120" width="10" height="80" as="geometry"/>
                </mxCell>
                <mxCell id="105" value=":GameControl" style="shape=umlLifeline;perimeter=lifelinePerimeter;whiteSpace=wrap;html=1;container=1;collapsible=0;recursiveResize=0;outlineConnect=0;" parent="1" vertex="1">
                    <mxGeometry x="240" y="1400" width="100" height="240" as="geometry"/>
                </mxCell>
                <mxCell id="110" value="" style="html=1;points=[];perimeter=orthogonalPerimeter;" parent="105" vertex="1">
                    <mxGeometry x="44" y="90" width="10" height="80" as="geometry"/>
                </mxCell>
                <mxCell id="263" value="Photoimage()" style="html=1;verticalAlign=bottom;endArrow=block;" parent="105" target="104" edge="1">
                    <mxGeometry x="0.0042" width="80" relative="1" as="geometry">
                        <mxPoint x="50" y="120" as="sourcePoint"/>
                        <mxPoint x="130" y="120" as="targetPoint"/>
                        <mxPoint as="offset"/>
                    </mxGeometry>
                </mxCell>
                <mxCell id="138" value=":PlayPage" style="shape=umlLifeline;perimeter=lifelinePerimeter;whiteSpace=wrap;html=1;container=1;collapsible=0;recursiveResize=0;outlineConnect=0;" parent="1" vertex="1">
                    <mxGeometry x="960" y="480" width="100" height="640" as="geometry"/>
                </mxCell>
                <mxCell id="142" value="" style="html=1;points=[];perimeter=orthogonalPerimeter;" parent="138" vertex="1">
                    <mxGeometry x="45" y="100" width="10" height="80" as="geometry"/>
                </mxCell>
                <mxCell id="149" value="button(&quot;スタンド&quot;)" style="html=1;verticalAlign=bottom;endArrow=block;" parent="138" target="145" edge="1">
                    <mxGeometry width="80" relative="1" as="geometry">
                        <mxPoint x="60" y="130" as="sourcePoint"/>
                        <mxPoint x="140" y="130" as="targetPoint"/>
                    </mxGeometry>
                </mxCell>
                <mxCell id="257" value="alt" style="shape=umlFrame;whiteSpace=wrap;html=1;" parent="138" vertex="1">
                    <mxGeometry x="70" y="330" width="300" height="240" as="geometry"/>
                </mxCell>
                <mxCell id="139" value="" style="shape=umlLifeline;participant=umlActor;perimeter=lifelinePerimeter;whiteSpace=wrap;html=1;container=1;collapsible=0;recursiveResize=0;verticalAlign=top;spacingTop=36;outlineConnect=0;" parent="1" vertex="1">
                    <mxGeometry x="910" y="520" width="20" height="590" as="geometry"/>
                </mxCell>
                <mxCell id="141" value="" style="html=1;points=[];perimeter=orthogonalPerimeter;" parent="139" vertex="1">
                    <mxGeometry x="5" y="50" width="10" height="80" as="geometry"/>
                </mxCell>
                <mxCell id="140" value="User" style="text;html=1;align=center;verticalAlign=middle;resizable=0;points=[];autosize=1;strokeColor=none;fillColor=none;" parent="1" vertex="1">
                    <mxGeometry x="895" y="485" width="50" height="30" as="geometry"/>
                </mxCell>
                <mxCell id="143" value="push_button(&quot;スタンド&quot;)" style="html=1;verticalAlign=bottom;endArrow=block;" parent="1" edge="1">
                    <mxGeometry width="80" relative="1" as="geometry">
                        <mxPoint x="930" y="590" as="sourcePoint"/>
                        <mxPoint x="1010" y="590" as="targetPoint"/>
                    </mxGeometry>
                </mxCell>
                <mxCell id="144" value=":ResultConfirmation&lt;br&gt;Page" style="shape=umlLifeline;perimeter=lifelinePerimeter;whiteSpace=wrap;html=1;container=1;collapsible=0;recursiveResize=0;outlineConnect=0;" parent="1" vertex="1">
                    <mxGeometry x="1220" y="480" width="100" height="640" as="geometry"/>
                </mxCell>
                <mxCell id="156" value="" style="html=1;points=[];perimeter=orthogonalPerimeter;" parent="144" vertex="1">
                    <mxGeometry x="45" y="410" width="10" height="190" as="geometry"/>
                </mxCell>
                <mxCell id="162" value="[登録済ユーザの手札の点数がディーラーより低い]" style="text;html=1;align=center;verticalAlign=middle;resizable=0;points=[];autosize=1;strokeColor=none;fillColor=none;" parent="144" vertex="1">
                    <mxGeometry x="-190" y="430" width="290" height="30" as="geometry"/>
                </mxCell>
                <mxCell id="145" value=":GameControl" style="shape=umlLifeline;perimeter=lifelinePerimeter;whiteSpace=wrap;html=1;container=1;collapsible=0;recursiveResize=0;outlineConnect=0;" parent="1" vertex="1">
                    <mxGeometry x="1080" y="480" width="120" height="640" as="geometry"/>
                </mxCell>
                <mxCell id="148" value="" style="html=1;points=[];perimeter=orthogonalPerimeter;" parent="145" vertex="1">
                    <mxGeometry x="55" y="130" width="10" height="480" as="geometry"/>
                </mxCell>
                <mxCell id="152" value="add_card(card)" style="html=1;verticalAlign=bottom;endArrow=block;" parent="145" target="146" edge="1">
                    <mxGeometry width="80" relative="1" as="geometry">
                        <mxPoint x="60" y="190" as="sourcePoint"/>
                        <mxPoint x="140" y="190" as="targetPoint"/>
                    </mxGeometry>
                </mxCell>
                <mxCell id="155" value="Take(player_hand,dealer_hand)" style="html=1;verticalAlign=bottom;endArrow=block;" parent="145" target="147" edge="1">
                    <mxGeometry width="80" relative="1" as="geometry">
                        <mxPoint x="60" y="290" as="sourcePoint"/>
                        <mxPoint x="140" y="290" as="targetPoint"/>
                    </mxGeometry>
                </mxCell>
                <mxCell id="255" value="Label(&quot;YOU LOSE&quot;)" style="html=1;verticalAlign=bottom;endArrow=block;" parent="145" target="144" edge="1">
                    <mxGeometry width="80" relative="1" as="geometry">
                        <mxPoint x="60" y="480" as="sourcePoint"/>
                        <mxPoint x="140" y="480" as="targetPoint"/>
                    </mxGeometry>
                </mxCell>
                <mxCell id="256" value="Label(&quot;DRAW&quot;)" style="html=1;verticalAlign=bottom;endArrow=block;" parent="145" target="144" edge="1">
                    <mxGeometry width="80" relative="1" as="geometry">
                        <mxPoint x="60" y="560" as="sourcePoint"/>
                        <mxPoint x="140" y="560" as="targetPoint"/>
                    </mxGeometry>
                </mxCell>
                <mxCell id="146" value=":Dealer" style="shape=umlLifeline;perimeter=lifelinePerimeter;whiteSpace=wrap;html=1;container=1;collapsible=0;recursiveResize=0;outlineConnect=0;" parent="1" vertex="1">
                    <mxGeometry x="1340" y="480" width="100" height="640" as="geometry"/>
                </mxCell>
                <mxCell id="150" value="" style="html=1;points=[];perimeter=orthogonalPerimeter;" parent="146" vertex="1">
                    <mxGeometry x="45" y="190" width="10" height="50" as="geometry"/>
                </mxCell>
                <mxCell id="147" value=":Hand" style="shape=umlLifeline;perimeter=lifelinePerimeter;whiteSpace=wrap;html=1;container=1;collapsible=0;recursiveResize=0;outlineConnect=0;" parent="1" vertex="1">
                    <mxGeometry x="1480" y="480" width="100" height="640" as="geometry"/>
                </mxCell>
                <mxCell id="154" value="" style="html=1;points=[];perimeter=orthogonalPerimeter;" parent="147" vertex="1">
                    <mxGeometry x="45" y="290" width="10" height="70" as="geometry"/>
                </mxCell>
                <mxCell id="160" value="[ディーラーの手札の点数が21点を超える、&lt;br&gt;又は登録済ユーザの手札がディーラーより高い]" style="text;html=1;align=center;verticalAlign=middle;resizable=0;points=[];autosize=1;strokeColor=none;fillColor=none;" parent="1" vertex="1">
                    <mxGeometry x="1040" y="840" width="280" height="40" as="geometry"/>
                </mxCell>
                <mxCell id="161" value="" style="endArrow=none;dashed=1;html=1;exitX=-0.005;exitY=0.298;exitDx=0;exitDy=0;exitPerimeter=0;entryX=1.003;entryY=0.298;entryDx=0;entryDy=0;entryPerimeter=0;" parent="1" edge="1">
                    <mxGeometry width="50" height="50" relative="1" as="geometry">
                        <mxPoint x="1028.5" y="902.9100000000001" as="sourcePoint"/>
                        <mxPoint x="1330.9" y="902.9100000000001" as="targetPoint"/>
                    </mxGeometry>
                </mxCell>
                <mxCell id="164" value="[登録済ユーザとディーラーの手札の点数が同じ]" style="text;html=1;align=center;verticalAlign=middle;resizable=0;points=[];autosize=1;strokeColor=none;fillColor=none;" parent="1" vertex="1">
                    <mxGeometry x="1040" y="990" width="280" height="30" as="geometry"/>
                </mxCell>
                <mxCell id="166" value="" style="endArrow=none;dashed=1;html=1;exitX=0.003;exitY=0.597;exitDx=0;exitDy=0;exitPerimeter=0;entryX=0.995;entryY=0.597;entryDx=0;entryDy=0;entryPerimeter=0;" parent="1" edge="1">
                    <mxGeometry width="50" height="50" relative="1" as="geometry">
                        <mxPoint x="1030.9" y="991.115" as="sourcePoint"/>
                        <mxPoint x="1328.5" y="991.115" as="targetPoint"/>
                    </mxGeometry>
                </mxCell>
                <mxCell id="168" value="" style="shape=umlLifeline;participant=umlActor;perimeter=lifelinePerimeter;whiteSpace=wrap;html=1;container=1;collapsible=0;recursiveResize=0;verticalAlign=top;spacingTop=36;outlineConnect=0;" parent="1" vertex="1">
                    <mxGeometry x="910" y="1280" width="20" height="260" as="geometry"/>
                </mxCell>
                <mxCell id="174" value="" style="html=1;points=[];perimeter=orthogonalPerimeter;" parent="168" vertex="1">
                    <mxGeometry x="5" y="60" width="10" height="80" as="geometry"/>
                </mxCell>
                <mxCell id="169" value="User" style="text;html=1;align=center;verticalAlign=middle;resizable=0;points=[];autosize=1;strokeColor=none;fillColor=none;" parent="1" vertex="1">
                    <mxGeometry x="895" y="1245" width="50" height="30" as="geometry"/>
                </mxCell>
                <mxCell id="172" value=":PlayPage" style="shape=umlLifeline;perimeter=lifelinePerimeter;whiteSpace=wrap;html=1;container=1;collapsible=0;recursiveResize=0;outlineConnect=0;" parent="1" vertex="1">
                    <mxGeometry x="1000" y="1240" width="100" height="300" as="geometry"/>
                </mxCell>
                <mxCell id="176" value="" style="html=1;points=[];perimeter=orthogonalPerimeter;" parent="172" vertex="1">
                    <mxGeometry x="45" y="110" width="10" height="80" as="geometry"/>
                </mxCell>
                <mxCell id="179" value="GameControl()" style="html=1;verticalAlign=bottom;endArrow=block;" parent="172" target="175" edge="1">
                    <mxGeometry width="80" relative="1" as="geometry">
                        <mxPoint x="60" y="130" as="sourcePoint"/>
                        <mxPoint x="140" y="130" as="targetPoint"/>
                    </mxGeometry>
                </mxCell>
                <mxCell id="173" value=":Content&lt;br&gt;ConfirmationPage" style="shape=umlLifeline;perimeter=lifelinePerimeter;whiteSpace=wrap;html=1;container=1;collapsible=0;recursiveResize=0;outlineConnect=0;" parent="1" vertex="1">
                    <mxGeometry x="1241" y="1240" width="100" height="300" as="geometry"/>
                </mxCell>
                <mxCell id="180" value="" style="html=1;points=[];perimeter=orthogonalPerimeter;" parent="173" vertex="1">
                    <mxGeometry x="45" y="160" width="10" height="80" as="geometry"/>
                </mxCell>
                <mxCell id="175" value=":GameControl" style="shape=umlLifeline;perimeter=lifelinePerimeter;whiteSpace=wrap;html=1;container=1;collapsible=0;recursiveResize=0;outlineConnect=0;" parent="1" vertex="1">
                    <mxGeometry x="1120" y="1240" width="100" height="300" as="geometry"/>
                </mxCell>
                <mxCell id="178" value="" style="html=1;points=[];perimeter=orthogonalPerimeter;" parent="175" vertex="1">
                    <mxGeometry x="45" y="130" width="10" height="110" as="geometry"/>
                </mxCell>
                <mxCell id="185" value="BetResult(bet)" style="html=1;verticalAlign=bottom;endArrow=block;" parent="175" target="183" edge="1">
                    <mxGeometry width="80" relative="1" as="geometry">
                        <mxPoint x="60" y="220" as="sourcePoint"/>
                        <mxPoint x="140" y="220" as="targetPoint"/>
                    </mxGeometry>
                </mxCell>
                <mxCell id="258" value="show_window()" style="html=1;verticalAlign=bottom;endArrow=block;" parent="175" target="173" edge="1">
                    <mxGeometry width="80" relative="1" as="geometry">
                        <mxPoint x="50" y="160" as="sourcePoint"/>
                        <mxPoint x="130" y="160" as="targetPoint"/>
                    </mxGeometry>
                </mxCell>
                <mxCell id="177" value="push_button(&quot;サレンダー&quot;)" style="html=1;verticalAlign=bottom;endArrow=block;" parent="1" target="172" edge="1">
                    <mxGeometry width="80" relative="1" as="geometry">
                        <mxPoint x="930" y="1360" as="sourcePoint"/>
                        <mxPoint x="1010" y="1360" as="targetPoint"/>
                    </mxGeometry>
                </mxCell>
                <mxCell id="183" value=":Bet" style="shape=umlLifeline;perimeter=lifelinePerimeter;whiteSpace=wrap;html=1;container=1;collapsible=0;recursiveResize=0;outlineConnect=0;" parent="1" vertex="1">
                    <mxGeometry x="1360" y="1240" width="100" height="300" as="geometry"/>
                </mxCell>
                <mxCell id="184" value="" style="html=1;points=[];perimeter=orthogonalPerimeter;" parent="183" vertex="1">
                    <mxGeometry x="45" y="220" width="10" height="60" as="geometry"/>
                </mxCell>
                <mxCell id="187" value=":PlayPage" style="shape=umlLifeline;perimeter=lifelinePerimeter;whiteSpace=wrap;html=1;container=1;collapsible=0;recursiveResize=0;outlineConnect=0;" parent="1" vertex="1">
                    <mxGeometry x="960" y="1640" width="100" height="300" as="geometry"/>
                </mxCell>
                <mxCell id="190" value="" style="html=1;points=[];perimeter=orthogonalPerimeter;" parent="187" vertex="1">
                    <mxGeometry x="45" y="74" width="10" height="80" as="geometry"/>
                </mxCell>
                <mxCell id="193" value="instruct(show)" style="html=1;verticalAlign=bottom;endArrow=block;" parent="187" target="189" edge="1">
                    <mxGeometry width="80" relative="1" as="geometry">
                        <mxPoint x="60" y="90" as="sourcePoint"/>
                        <mxPoint x="140" y="90" as="targetPoint"/>
                    </mxGeometry>
                </mxCell>
                <mxCell id="188" value="：Continuation&lt;br&gt;SelectPage" style="shape=umlLifeline;perimeter=lifelinePerimeter;whiteSpace=wrap;html=1;container=1;collapsible=0;recursiveResize=0;outlineConnect=0;" parent="1" vertex="1">
                    <mxGeometry x="1200" y="1640" width="100" height="300" as="geometry"/>
                </mxCell>
                <mxCell id="192" value="" style="html=1;points=[];perimeter=orthogonalPerimeter;" parent="188" vertex="1">
                    <mxGeometry x="45" y="180" width="10" height="60" as="geometry"/>
                </mxCell>
                <mxCell id="189" value=":Control" style="shape=umlLifeline;perimeter=lifelinePerimeter;whiteSpace=wrap;html=1;container=1;collapsible=0;recursiveResize=0;outlineConnect=0;" parent="1" vertex="1">
                    <mxGeometry x="1080" y="1640" width="100" height="300" as="geometry"/>
                </mxCell>
                <mxCell id="191" value="" style="html=1;points=[];perimeter=orthogonalPerimeter;" parent="189" vertex="1">
                    <mxGeometry x="45" y="90" width="10" height="110" as="geometry"/>
                </mxCell>
                <mxCell id="259" value="Button()" style="html=1;verticalAlign=bottom;endArrow=block;" parent="189" target="188" edge="1">
                    <mxGeometry width="80" relative="1" as="geometry">
                        <mxPoint x="50" y="180" as="sourcePoint"/>
                        <mxPoint x="130" y="180" as="targetPoint"/>
                    </mxGeometry>
                </mxCell>
                <mxCell id="195" value="[掛け金が0円でない]" style="text;html=1;align=center;verticalAlign=middle;resizable=0;points=[];autosize=1;strokeColor=none;fillColor=none;" parent="1" vertex="1">
                    <mxGeometry x="1135.5" y="1765" width="130" height="30" as="geometry"/>
                </mxCell>
                <mxCell id="200" value=":Continuation&lt;br&gt;SelectPage" style="shape=umlLifeline;perimeter=lifelinePerimeter;whiteSpace=wrap;html=1;container=1;collapsible=0;recursiveResize=0;outlineConnect=0;" parent="1" vertex="1">
                    <mxGeometry x="960" y="2038" width="100" height="242" as="geometry"/>
                </mxCell>
                <mxCell id="203" value="" style="html=1;points=[];perimeter=orthogonalPerimeter;" parent="200" vertex="1">
                    <mxGeometry x="45" y="81" width="10" height="80" as="geometry"/>
                </mxCell>
                <mxCell id="206" value="instruct(show)" style="html=1;verticalAlign=bottom;endArrow=block;" parent="200" target="202" edge="1">
                    <mxGeometry width="80" relative="1" as="geometry">
                        <mxPoint x="60" y="92" as="sourcePoint"/>
                        <mxPoint x="140" y="92" as="targetPoint"/>
                    </mxGeometry>
                </mxCell>
                <mxCell id="201" value="：GameEndPage" style="shape=umlLifeline;perimeter=lifelinePerimeter;whiteSpace=wrap;html=1;container=1;collapsible=0;recursiveResize=0;outlineConnect=0;" parent="1" vertex="1">
                    <mxGeometry x="1200" y="2038" width="100" height="242" as="geometry"/>
                </mxCell>
                <mxCell id="205" value="" style="html=1;points=[];perimeter=orthogonalPerimeter;" parent="201" vertex="1">
                    <mxGeometry x="45" y="112" width="10" height="80" as="geometry"/>
                </mxCell>
                <mxCell id="202" value=":Control" style="shape=umlLifeline;perimeter=lifelinePerimeter;whiteSpace=wrap;html=1;container=1;collapsible=0;recursiveResize=0;outlineConnect=0;" parent="1" vertex="1">
                    <mxGeometry x="1080" y="2040" width="100" height="240.5" as="geometry"/>
                </mxCell>
                <mxCell id="204" value="" style="html=1;points=[];perimeter=orthogonalPerimeter;" parent="202" vertex="1">
                    <mxGeometry x="45" y="92" width="10" height="80" as="geometry"/>
                </mxCell>
                <mxCell id="261" value="Label()" style="html=1;verticalAlign=bottom;endArrow=block;" parent="202" target="201" edge="1">
                    <mxGeometry width="80" relative="1" as="geometry">
                        <mxPoint x="50" y="111.5" as="sourcePoint"/>
                        <mxPoint x="130" y="111.5" as="targetPoint"/>
                    </mxGeometry>
                </mxCell>
                <mxCell id="95" value="[掛け金未入力]" style="text;html=1;align=center;verticalAlign=middle;resizable=0;points=[];autosize=1;strokeColor=none;fillColor=none;" parent="1" vertex="1">
                    <mxGeometry x="420" y="1145" width="100" height="30" as="geometry"/>
                </mxCell>
                <mxCell id="232" value=":PlayPage" style="shape=umlLifeline;perimeter=lifelinePerimeter;whiteSpace=wrap;html=1;container=1;collapsible=0;recursiveResize=0;outlineConnect=0;" parent="1" vertex="1">
                    <mxGeometry x="960" y="40" width="100" height="300" as="geometry"/>
                </mxCell>
                <mxCell id="233" value="" style="html=1;points=[];perimeter=orthogonalPerimeter;" parent="232" vertex="1">
                    <mxGeometry x="45" y="110" width="10" height="80" as="geometry"/>
                </mxCell>
                <mxCell id="234" value="" style="shape=umlLifeline;participant=umlActor;perimeter=lifelinePerimeter;whiteSpace=wrap;html=1;container=1;collapsible=0;recursiveResize=0;verticalAlign=top;spacingTop=36;outlineConnect=0;" parent="1" vertex="1">
                    <mxGeometry x="910" y="80" width="20" height="300" as="geometry"/>
                </mxCell>
                <mxCell id="235" value="" style="html=1;points=[];perimeter=orthogonalPerimeter;" parent="234" vertex="1">
                    <mxGeometry x="5" y="60" width="10" height="80" as="geometry"/>
                </mxCell>
                <mxCell id="236" value="push_button(&quot;ヒット&quot;)" style="html=1;verticalAlign=bottom;endArrow=block;" parent="234" target="232" edge="1">
                    <mxGeometry x="0.0056" width="80" relative="1" as="geometry">
                        <mxPoint x="10" y="80" as="sourcePoint"/>
                        <mxPoint x="100" y="80" as="targetPoint"/>
                        <mxPoint as="offset"/>
                    </mxGeometry>
                </mxCell>
                <mxCell id="237" value="User" style="text;html=1;align=center;verticalAlign=middle;resizable=0;points=[];autosize=1;strokeColor=none;fillColor=none;" parent="1" vertex="1">
                    <mxGeometry x="895" y="45" width="50" height="30" as="geometry"/>
                </mxCell>
                <mxCell id="238" value=":GameControl" style="shape=umlLifeline;perimeter=lifelinePerimeter;whiteSpace=wrap;html=1;container=1;collapsible=0;recursiveResize=0;outlineConnect=0;" parent="1" vertex="1">
                    <mxGeometry x="1080" y="40" width="105" height="360" as="geometry"/>
                </mxCell>
                <mxCell id="239" value="" style="html=1;points=[];perimeter=orthogonalPerimeter;" parent="238" vertex="1">
                    <mxGeometry x="45" y="130" width="10" height="190" as="geometry"/>
                </mxCell>
                <mxCell id="240" value="add_card(card)" style="html=1;verticalAlign=bottom;endArrow=block;" parent="238" target="247" edge="1">
                    <mxGeometry width="80" relative="1" as="geometry">
                        <mxPoint x="50" y="200" as="sourcePoint"/>
                        <mxPoint x="130" y="200" as="targetPoint"/>
                    </mxGeometry>
                </mxCell>
                <mxCell id="241" value="Label()" style="html=1;verticalAlign=bottom;endArrow=block;" parent="238" target="243" edge="1">
                    <mxGeometry width="80" relative="1" as="geometry">
                        <mxPoint x="50" y="270" as="sourcePoint"/>
                        <mxPoint x="130" y="270" as="targetPoint"/>
                    </mxGeometry>
                </mxCell>
                <mxCell id="242" value="button(&quot;ヒット&quot;)" style="html=1;verticalAlign=bottom;endArrow=block;" parent="1" target="238" edge="1">
                    <mxGeometry width="80" relative="1" as="geometry">
                        <mxPoint x="1015" y="170" as="sourcePoint"/>
                        <mxPoint x="1095" y="170" as="targetPoint"/>
                    </mxGeometry>
                </mxCell>
                <mxCell id="243" value=":ResultConfirmation&lt;br&gt;Page" style="shape=umlLifeline;perimeter=lifelinePerimeter;whiteSpace=wrap;html=1;container=1;collapsible=0;recursiveResize=0;outlineConnect=0;" parent="1" vertex="1">
                    <mxGeometry x="1200" y="40" width="100" height="360" as="geometry"/>
                </mxCell>
                <mxCell id="244" value="" style="html=1;points=[];perimeter=orthogonalPerimeter;" parent="243" vertex="1">
                    <mxGeometry x="45" y="270" width="10" height="50" as="geometry"/>
                </mxCell>
                <mxCell id="245" value=":Deck" style="shape=umlLifeline;perimeter=lifelinePerimeter;whiteSpace=wrap;html=1;container=1;collapsible=0;recursiveResize=0;outlineConnect=0;" parent="1" vertex="1">
                    <mxGeometry x="1320" y="40" width="100" height="300" as="geometry"/>
                </mxCell>
                <mxCell id="246" value="" style="html=1;points=[];perimeter=orthogonalPerimeter;" parent="245" vertex="1">
                    <mxGeometry x="45" y="140" width="10" height="30" as="geometry"/>
                </mxCell>
                <mxCell id="247" value=":Hand" style="shape=umlLifeline;perimeter=lifelinePerimeter;whiteSpace=wrap;html=1;container=1;collapsible=0;recursiveResize=0;outlineConnect=0;" parent="1" vertex="1">
                    <mxGeometry x="1440" y="40" width="100" height="300" as="geometry"/>
                </mxCell>
                <mxCell id="248" value="" style="html=1;points=[];perimeter=orthogonalPerimeter;" parent="247" vertex="1">
                    <mxGeometry x="45" y="200" width="10" height="50" as="geometry"/>
                </mxCell>
                <mxCell id="249" value="[手札の点数が&lt;br&gt;21を超える]" style="text;html=1;align=center;verticalAlign=middle;resizable=0;points=[];autosize=1;strokeColor=none;fillColor=none;" parent="1" vertex="1">
                    <mxGeometry x="1141" y="250" width="100" height="40" as="geometry"/>
                </mxCell>
                <mxCell id="250" value="GetCard(card)" style="html=1;verticalAlign=bottom;endArrow=block;entryX=0;entryY=0;" parent="1" source="238" target="246" edge="1">
                    <mxGeometry relative="1" as="geometry">
                        <mxPoint x="1300" y="180" as="sourcePoint"/>
                    </mxGeometry>
                </mxCell>
                <mxCell id="251" value="return(card)" style="html=1;verticalAlign=bottom;endArrow=open;dashed=1;endSize=8;exitX=0;exitY=0.95;" parent="1" source="246" target="239" edge="1">
                    <mxGeometry relative="1" as="geometry">
                        <mxPoint x="1300" y="256" as="targetPoint"/>
                    </mxGeometry>
                </mxCell>
                <mxCell id="254" value="Label(&quot;YOU WIN&quot;)" style="html=1;verticalAlign=bottom;endArrow=block;" parent="1" target="144" edge="1">
                    <mxGeometry width="80" relative="1" as="geometry">
                        <mxPoint x="1140" y="890" as="sourcePoint"/>
                        <mxPoint x="1220" y="890" as="targetPoint"/>
                    </mxGeometry>
                </mxCell>
                <mxCell id="94" value="[書式＝正しい]" style="text;html=1;align=center;verticalAlign=middle;resizable=0;points=[];autosize=1;strokeColor=none;fillColor=none;" parent="1" vertex="1">
                    <mxGeometry x="414" y="1080" width="100" height="30" as="geometry"/>
                </mxCell>
            </root>
        </mxGraphModel>
    </diagram>
</mxfile>